<svg id="Capa_1" data-name="Capa 1" xmlns="http://www.w3.org/2000/svg" viewBox="0 0 164.07 42.37"><defs><style>.cls-1{font-size:36px;font-family:TwCenMT-Regular, Tw Cen MT;}.cls-1,.cls-5{fill:#fff;}.cls-2{letter-spacing:0.02em;}.cls-3{fill:#525198;}.cls-4{fill:#211915;}</style></defs><title>Logo</title><text class="cls-1" transform="translate(49.34 29.2)">A<tspan class="cls-2" x="21.74" y="0">r</tspan><tspan x="34.45" y="0">tHub</tspan></text><path class="cls-3" d="M20.48,1.36a29.18,29.18,0,0,1-3.14.78c-3,.69-8,5.11-9.76,8.67C5.88,14,5.8,22.17,7.33,25.21,10.47,31.54,15.9,35,22.6,35c7.8,0,13.57-4.51,15.78-12.23,1.27-4.25,1.27-5,0-8.33C36.6,9.68,33.8,7.08,29.56,6,20.39,4,11.91,13,15.3,21.31a7.74,7.74,0,0,0,14.51.08c1.61-3.81.51-7.2-2.46-8-3.22-.78-5-.08-6.45,2.43-1.1,2.17-1.1,2.52.26,3.9s1.52,1.39,2.88,0,1.36-1.47,0-1.47c-1.78,0-1.87-1.13-.25-2.52,1.78-1.56,4.75.26,4.75,2.87s-3.31,5.72-6,5.72-5.85-3.3-5.85-6,2.21-6.77,4.16-7.9a9.85,9.85,0,0,1,9.75,1c4.75,3.81,4.75,10.23.09,15-4.75,4.95-11.37,4.95-16.12,0C9.36,21.13,9.87,13.06,15.9,6.91a16.35,16.35,0,0,1,5.85-4c1.44-.26,2.55-.78,2.55-1.22C24.3.92,22.17.75,20.48,1.36Z" transform="translate(-6.24 5.38)"/><line class="cls-4" x1="36.9" y1="34.61" x2="159.76" y2="34.3"/><path class="cls-5" d="M43.14,29c10.24-.42,20.48-.71,30.71-1.07l30.72-.83q7.67-.22,15.35-.52t15.36-.06l7.68.28c2.56.14,5.12.23,7.68.42,5.12.34,10.24.77,15.36,1.47v.5c-5.12.73-10.23,1.19-15.35,1.55-2.56.21-5.12.31-7.68.47l-7.68.31q-7.68.24-15.36,0t-15.35-.43L73.86,30.4c-10.24-.32-20.48-.55-30.72-.93Z" transform="translate(-6.24 5.38)"/></svg>